<svg width="156" height="48" viewBox="0 0 156 48" fill="none" xmlns="http://www.w3.org/2000/svg">
<path d="M2.98828 43.9277V23.5664C2.98828 22.2578 2.70508 21.125 2.13867 20.168C1.5918 19.2109 0.898437 18.7324 0.0585938 18.7324V17.4141C0.332031 17.3555 2.50977 16.1348 6.5918 13.752C6.74805 13.791 6.91406 13.8398 7.08984 13.8984C7.26562 13.9375 7.45117 13.9961 7.64648 14.0742C8.03711 14.2109 8.55469 14.6016 9.19922 15.2461C9.86328 15.8906 10.1953 16.6328 10.1953 17.4727C10.4883 17.2969 11.1719 16.916 12.2461 16.3301C15.2148 14.6504 17.041 13.8105 17.7246 13.8105C18.4277 13.8105 19.209 14.1719 20.0684 14.8945C20.9277 15.5977 21.582 16.457 22.0312 17.4727C22.0703 17.4531 22.2949 17.3359 22.7051 17.1211C23.1152 16.9062 23.7109 16.6035 24.4922 16.2129C27.5781 14.6113 29.4531 13.8105 30.1172 13.8105C30.9766 13.8105 31.8066 14.2109 32.6074 15.0117C33.4277 15.8125 34.0918 16.7695 34.5996 17.8828C35.127 18.9766 35.3906 19.9922 35.3906 20.9297V39.123C35.3906 41.3301 36.377 42.6289 38.3496 43.0195V44.3379L31.7871 48C30.9082 47.6484 30.0879 47.0625 29.3262 46.2422C28.584 45.4219 28.2129 44.6504 28.2129 43.9277V26.2324C28.2129 23.6152 27.8711 21.877 27.1875 21.0176C26.5039 20.1582 25.625 19.7285 24.5508 19.7285L22.793 20.1094V39.123C22.793 41.3301 23.7793 42.6289 25.752 43.0195V44.3379L19.1895 48C18.3105 47.6484 17.4902 47.0625 16.7285 46.2422C15.9668 45.4219 15.5859 44.6504 15.5859 43.9277V26.5254C15.5859 21.916 14.4922 19.6113 12.3047 19.6113L10.1953 19.9922V39.123C10.1953 41.5449 11.0156 42.9219 12.6562 43.2539V44.5723L6.5918 48C5.71289 47.6484 4.89258 47.0625 4.13086 46.2422C3.36914 45.4219 2.98828 44.6504 2.98828 43.9277ZM56.0742 13.8105C56.2891 13.8105 56.7871 14.1133 57.5684 14.7188C58.3691 15.3242 59.1699 16.1836 59.9707 17.2969C60.7715 18.4102 61.1719 19.4844 61.1719 20.5195V30.5977C61.1719 31.3203 60.1172 32.1992 58.0078 33.2344C56.9336 33.7617 55.7129 34.2988 54.3457 34.8457C52.9785 35.3926 51.748 35.8516 50.6543 36.2227C49.5605 36.5938 48.8867 36.7793 48.6328 36.7793C48.6328 39.8457 49.9707 41.75 52.6465 42.4922C53.916 42.8047 55.498 42.9609 57.3926 42.9609V44.6895C50.8105 46.8965 47.3047 48 46.875 48C46.0938 48 45.2734 47.6094 44.4141 46.8281C43.5547 46.0273 42.832 44.9824 42.2461 43.6934C41.6602 42.4043 41.3672 40.998 41.3672 39.4746V19.3184C41.3672 19.2012 41.8164 18.9473 42.7148 18.5566C43.6328 18.1465 44.7754 17.6777 46.1426 17.1504C47.5098 16.623 48.8965 16.1055 50.3027 15.5977C51.7285 15.0703 52.9785 14.6406 54.0527 14.3086C55.127 13.9766 55.8008 13.8105 56.0742 13.8105ZM53.9648 23.332C53.9648 22.2383 53.7109 21.291 53.2031 20.4902C52.6758 19.709 52.002 19.3184 51.1816 19.3184C50.3809 19.3184 49.5117 19.6211 48.5742 20.2266V34.084C52.168 33.0879 53.9648 30.9297 53.9648 27.6094V23.332ZM74.0625 5.92969V39.123C74.0625 41.5449 74.8828 42.9219 76.5234 43.2539V44.5723L70.459 48C69.5801 47.6484 68.7598 47.0625 67.998 46.2422C67.2363 45.4219 66.8555 44.6504 66.8555 43.9277V10.7344C66.8555 8.29297 66.0352 6.91602 64.3945 6.60352V5.28516L70.459 1.85742C71.3379 2.22852 72.1582 2.82422 72.9199 3.64453C73.6816 4.44531 74.0625 5.20703 74.0625 5.92969ZM80.0391 39.2402V19.3184C80.0391 19.2012 80.4883 18.9473 81.3867 18.5566C82.3047 18.1465 83.4473 17.6777 84.8145 17.1504C86.1816 16.623 87.5684 16.1055 88.9746 15.5977C90.4004 15.0703 91.6504 14.6406 92.7246 14.3086C93.7988 13.9766 94.4727 13.8105 94.7461 13.8105C95.0977 13.8105 95.5566 14.0449 96.123 14.5137C96.6895 14.9629 97.2559 15.5488 97.8223 16.2715C98.4082 16.9941 98.8965 17.7559 99.2871 18.5566C99.6973 19.3379 99.9023 20.0508 99.9023 20.6953V42.4336C99.9023 42.5508 99.4629 42.8145 98.584 43.2246C97.7246 43.6348 96.6406 44.1133 95.332 44.6602C94.0234 45.1875 92.666 45.7051 91.2598 46.2129C89.873 46.7207 88.623 47.1504 87.5098 47.502C86.416 47.834 85.6738 48 85.2832 48C84.6387 48 83.9062 47.6094 83.0859 46.8281C82.2656 46.0273 81.5527 44.9629 80.9473 43.6348C80.3418 42.3066 80.0391 40.8418 80.0391 39.2402ZM90.293 42.4922C91.0742 42.4922 91.8555 42.1699 92.6367 41.5254V23.8301C92.6367 20.8613 91.6211 19.377 89.5898 19.377C88.7695 19.377 87.9883 19.6797 87.2461 20.2852V38.0391C87.2461 41.0078 88.2617 42.4922 90.293 42.4922ZM125.742 42.4336C125.742 42.5898 125.303 42.8828 124.424 43.3125C123.564 43.7227 122.471 44.2012 121.143 44.748C119.814 45.2754 118.438 45.793 117.012 46.3008C115.605 46.7891 114.346 47.1992 113.232 47.5312C112.119 47.8438 111.367 48 110.977 48C110.312 48 109.58 47.5801 108.779 46.7402C107.998 45.8809 107.314 44.7871 106.729 43.459C106.162 42.1113 105.879 40.7051 105.879 39.2402V14.2207C105.879 13.1465 105.693 12.3848 105.322 11.9355C104.971 11.4668 104.355 11.2324 103.477 11.2324V9.5332C106.074 8.16602 108.535 6.84766 110.859 5.57812C113.184 4.28906 115.361 3.04883 117.393 1.85742L118.359 3.79102C117.949 3.98633 117.383 4.37695 116.66 4.96289C115.957 5.5293 115.361 6.11523 114.873 6.7207C113.682 8.22461 113.086 9.94336 113.086 11.877V16.9746C117.227 14.8652 119.619 13.8105 120.264 13.8105C120.967 13.8105 121.748 14.2012 122.607 14.9824C123.467 15.7441 124.199 16.7109 124.805 17.8828C125.43 19.0547 125.742 20.2559 125.742 21.4863V42.4336ZM113.086 19.4941V37.1895C113.086 40.7246 114.004 42.4922 115.84 42.4922C116.816 42.4922 117.695 42.1699 118.477 41.5254V26.5254C118.477 22.5996 117.754 20.373 116.309 19.8457C115.645 19.6113 114.57 19.4941 113.086 19.4941ZM130.752 6.31055V2.64844C130.752 2.58984 130.996 2.45312 131.484 2.23828C131.992 2.02344 132.578 1.78906 133.242 1.53516C133.926 1.28125 134.541 1.06641 135.088 0.890625C135.654 0.695312 136.006 0.597656 136.143 0.597656C136.416 0.597656 136.797 0.939453 137.285 1.62305C137.773 2.30664 138.018 3.00977 138.018 3.73242V8.09766C138.018 8.15625 137.773 8.29297 137.285 8.50781C136.816 8.72266 136.26 8.95703 135.615 9.21094C134.971 9.46484 134.365 9.68945 133.799 9.88477C133.232 10.0605 132.861 10.1484 132.686 10.1484C132.217 10.1484 131.777 9.74805 131.367 8.94727C130.957 8.14648 130.752 7.26758 130.752 6.31055ZM138.867 17.8828V39.123C138.867 41.5449 139.688 42.9219 141.328 43.2539V44.5723L135.264 48C134.385 47.6484 133.564 47.0625 132.803 46.2422C132.041 45.4219 131.66 44.6504 131.66 43.9277V22.6875C131.66 20.2266 130.84 18.8398 129.199 18.5273V17.209L135.264 13.8105C136.143 14.1621 136.963 14.748 137.725 15.5684C138.486 16.3887 138.867 17.1602 138.867 17.8828ZM150.352 7.57031H152.051V14.6895H155.098L154.512 17.6484H152.051V39.123C152.051 41.5449 152.871 42.9219 154.512 43.2539V44.5723L148.447 48C147.568 47.6484 146.748 47.0625 145.986 46.2422C145.225 45.4219 144.844 44.6504 144.844 43.9277V17.707H142.383L142.969 15.1875C143.789 15.1875 144.736 14.8066 145.811 14.0449C146.885 13.2832 147.861 12.3164 148.74 11.1445C149.619 9.97266 150.156 8.78125 150.352 7.57031Z" fill="white" fill-opacity="0.85"/>
</svg>
