<svg width="194" height="84" viewBox="0 0 194 84" fill="none" xmlns="http://www.w3.org/2000/svg">
<path d="M71.3881 15.0589V76.206M97.4269 35.4413V49.0295M123.466 15.0589V76.206M149.505 15.0589V69.4119M19.3105 1.4707V83.0001M175.543 42.2354V49.0295M45.3493 28.6472V62.6178M80.0677 28.6472V62.6178M106.107 42.2354V49.0295M132.145 8.26482V76.206M1.95129 35.4413V49.0295M158.184 35.4413V49.0295M27.9901 21.8531V62.6178M184.223 28.6472V62.6178M54.0289 15.0589V69.4119M88.7473 28.6472V62.6178M114.786 21.8531V62.6178M140.825 21.8531V62.6178M10.6309 15.0589V69.4119M166.864 15.0589V69.4119M36.6697 28.6472V62.6178M192.903 35.4413V49.0295M62.7085 35.4413V49.0295" stroke="white" stroke-width="2" stroke-linecap="round"/>
</svg>
